# xmcd CD database file
#
# Track frame offsets:
#	150
#	19200
#	34510
#	53630
#	65227
#	80375
#	92759
#	107037
#	121588
#	137745
#
# Disc length: 2017 seconds
#
# Revision: 0
# Processed by: cddbd v1.4PL0 Copyright (c) Steve Scherf et al.
# Submitted via: CdAid 2001.05.15.01
#
DISCID=7c07df0a
DTITLE=Sarah Jo - Sarah Jo
DYEAR=1900
DGENRE=
TTITLE0=I Gotta Tell Somebody
TTITLE1=With or Without You
TTITLE2=Even A Cowboy Can Dream
TTITLE3=I Will If You Let Me
TTITLE4=Anything Less Than Love
TTITLE5=Searching For Something
TTITLE6=Same Here
TTITLE7=From These Hills
TTITLE8=I'm Tired Of Waiting
TTITLE9=The Search Goes On
EXTD=
EXTT0=
EXTT1=
EXTT2=
EXTT3=
EXTT4=
EXTT5=
EXTT6=
EXTT7=
EXTT8=
EXTT9=
PLAYORDER=
